/* XPM */
static const char *flipx_xpm[]={
"16 15 3 1",
". c None",
"# c #000000",
"a c #000080",
"................",
".......#........",
".....#.#.a......",
".....#.#.a......",
"....##...aa.....",
"....##.#.aa.....",
"....##...aa.....",
"...###.#.aaa....",
"...###.#.aaa....",
"...###.#.aaa....",
"..####...aaaa...",
"..####.#.aaaa...",
".......#........",
".......#........",
"................"};
