/* XPM */
static const char *flipy_xpm[]={
"16 15 3 1",
". c None",
"# c #000000",
"a c #000040",
"................",
"...........##...",
".........####...",
"......#######...",
"....#########...",
"..###########...",
"................",
".####.#####.###.",
"................",
"..aaaaaaaaaaa...",
"....aaaaaaaaa...",
"......aaaaaaa...",
".........aaaa...",
"...........aa...",
"................"};
